<svg width="570" height="318" viewBox="0 0 570 318" fill="none" xmlns="http://www.w3.org/2000/svg">
<mask id="path-1-outside-1_59_1225" maskUnits="userSpaceOnUse" x="-0.735352" y="-0.895996" width="571" height="71" fill="black">
<rect fill="white" x="-0.735352" y="-0.895996" width="571" height="71"/>
<path d="M94.4647 15.304H44.0646L29.6646 53.8H80.0646L74.6887 68.2H20.6406C6.91265 68.2 -2.59135 54.472 2.30465 41.608L17.4726 0.999998H99.8407L94.4647 15.304ZM128.433 15.208L167.121 46.024L162.705 57.736C160.401 63.976 154.449 68.104 147.729 68.104H76.4969L81.8729 53.8H132.273L93.2009 23.464L97.8089 11.272C100.209 5.032 106.161 0.999998 112.785 0.999998H183.921L178.641 15.208H128.433ZM217.117 0.999998H306.397L301.117 15.304H211.741L217.117 0.999998ZM198.301 68.2L215.293 22.792H298.237L293.629 35.08H242.653L235.645 53.8H293.341L287.965 68.2H198.301ZM386.314 0.999998L359.818 35.944L374.89 68.2H340.042L330.442 47.56L314.89 68.008L298.666 68.2L324.298 34.504L308.554 0.999998H343.402L353.674 22.888L370.378 0.999998H386.314ZM475.469 0.999998C480.365 0.999998 483.821 5.896 482.093 10.504L470.189 42.28C469.133 45.064 466.541 46.888 463.565 46.888H417.581L409.517 68.2H377.549L390.221 34.504H440.717L448.205 15.304H390.989L396.365 0.999998H475.469ZM561.913 0.999998C566.617 0.999998 569.785 5.608 568.153 9.928L550.105 58.024C547.897 64.168 542.041 68.104 535.609 68.104H473.593C468.985 68.104 465.721 63.496 467.353 59.176L485.401 11.08C487.705 4.936 493.465 0.999998 499.993 0.999998H561.913ZM518.713 56.68L535.321 12.424H516.985L500.281 56.68H518.713Z"/>
</mask>
<path d="M94.4647 15.304V16.304H95.1571L95.4007 15.6558L94.4647 15.304ZM44.0647 15.304V14.304H43.371L43.128 14.9536L44.0647 15.304ZM29.6646 53.8L28.728 53.4496L28.2229 54.8H29.6646V53.8ZM80.0647 53.8L81.0015 54.1498L81.5054 52.8H80.0647V53.8ZM74.6887 68.2V69.2H75.3827L75.6255 68.5498L74.6887 68.2ZM2.30465 41.608L3.23926 41.9637L3.24143 41.9579L2.30465 41.608ZM17.4726 0.999998V-1.90735e-06H16.7787L16.5359 0.650088L17.4726 0.999998ZM99.8407 0.999998L100.777 1.35181L101.285 -1.90735e-06H99.8407V0.999998ZM94.4647 15.304V14.304H44.0647V15.304V16.304H94.4647V15.304ZM44.0647 15.304L43.128 14.9536L28.728 53.4496L29.6646 53.8L30.6013 54.1504L45.0013 15.6544L44.0647 15.304ZM29.6646 53.8V54.8H80.0647V53.8V52.8H29.6646V53.8ZM80.0647 53.8L79.1278 53.4502L73.7518 67.8503L74.6887 68.2L75.6255 68.5498L81.0015 54.1498L80.0647 53.8ZM74.6887 68.2V67.2H20.6406V68.2V69.2H74.6887V68.2ZM20.6406 68.2V67.2C7.61119 67.2 -1.40704 54.1716 3.23925 41.9637L2.30465 41.608L1.37005 41.2523C-3.77567 54.7724 6.2141 69.2 20.6406 69.2V68.2ZM2.30465 41.608L3.24143 41.9579L18.4094 1.34991L17.4726 0.999998L16.5359 0.650088L1.36786 41.2581L2.30465 41.608ZM17.4726 0.999998V2H99.8407V0.999998V-1.90735e-06H17.4726V0.999998ZM99.8407 0.999998L98.9046 0.648186L93.5286 14.9522L94.4647 15.304L95.4007 15.6558L100.777 1.35181L99.8407 0.999998ZM128.433 15.208V14.208H125.572L127.81 15.9902L128.433 15.208ZM167.121 46.024L168.057 46.3768L168.313 45.6955L167.744 45.2418L167.121 46.024ZM162.705 57.736L161.769 57.3832L161.767 57.3896L162.705 57.736ZM76.4969 68.104L75.5608 67.7522L75.0528 69.104H76.4969V68.104ZM81.8729 53.8V52.8H81.1804L80.9368 53.4482L81.8729 53.8ZM132.273 53.8V54.8H135.191L132.886 53.0101L132.273 53.8ZM93.2009 23.464L92.2655 23.1105L92.0045 23.8011L92.5876 24.2539L93.2009 23.464ZM97.8089 11.272L96.8755 10.913L96.8735 10.9185L97.8089 11.272ZM183.921 0.999998L184.858 1.34834L185.359 -1.90735e-06H183.921V0.999998ZM178.641 15.208V16.208H179.336L179.578 15.5563L178.641 15.208ZM128.433 15.208L127.81 15.9902L166.498 46.8062L167.121 46.024L167.744 45.2418L129.056 14.4258L128.433 15.208ZM167.121 46.024L166.185 45.6712L161.769 57.3832L162.705 57.736L163.641 58.0888L168.057 46.3768L167.121 46.024ZM162.705 57.736L161.767 57.3896C159.609 63.2326 154.035 67.104 147.729 67.104V68.104V69.104C154.863 69.104 161.192 64.7194 163.643 58.0824L162.705 57.736ZM147.729 68.104V67.104H76.4969V68.104V69.104H147.729V68.104ZM76.4969 68.104L77.433 68.4558L82.809 54.1518L81.8729 53.8L80.9368 53.4482L75.5608 67.7522L76.4969 68.104ZM81.8729 53.8V54.8H132.273V53.8V52.8H81.8729V53.8ZM132.273 53.8L132.886 53.0101L93.8142 22.6741L93.2009 23.464L92.5876 24.2539L131.66 54.5899L132.273 53.8ZM93.2009 23.464L94.1363 23.8175L98.7443 11.6255L97.8089 11.272L96.8735 10.9185L92.2655 23.1105L93.2009 23.464ZM97.8089 11.272L98.7422 11.631C100.992 5.78057 106.571 2 112.785 2V0.999998V-1.90735e-06C105.751 -1.90735e-06 99.4254 4.28343 96.8756 10.913L97.8089 11.272ZM112.785 0.999998V2H183.921V0.999998V-1.90735e-06H112.785V0.999998ZM183.921 0.999998L182.984 0.651653L177.704 14.8597L178.641 15.208L179.578 15.5563L184.858 1.34834L183.921 0.999998ZM178.641 15.208V14.208H128.433V15.208V16.208H178.641V15.208ZM217.117 0.999998V-1.90735e-06H216.425L216.181 0.648186L217.117 0.999998ZM306.397 0.999998L307.336 1.34629L307.832 -1.90735e-06H306.397V0.999998ZM301.117 15.304V16.304H301.814L302.056 15.6503L301.117 15.304ZM211.741 15.304L210.805 14.9522L210.297 16.304H211.741V15.304ZM198.301 68.2L197.365 67.8495L196.859 69.2H198.301V68.2ZM215.293 22.792V21.792H214.6L214.357 22.4415L215.293 22.792ZM298.237 22.792L299.174 23.1431L299.68 21.792H298.237V22.792ZM293.629 35.08V36.08H294.322L294.566 35.4311L293.629 35.08ZM242.653 35.08V34.08H241.96L241.717 34.7294L242.653 35.08ZM235.645 53.8L234.709 53.4494L234.203 54.8H235.645V53.8ZM293.341 53.8L294.278 54.1498L294.782 52.8H293.341V53.8ZM287.965 68.2V69.2H288.659L288.902 68.5498L287.965 68.2ZM217.117 0.999998V2H306.397V0.999998V-1.90735e-06H217.117V0.999998ZM306.397 0.999998L305.459 0.653709L300.179 14.9577L301.117 15.304L302.056 15.6503L307.336 1.34629L306.397 0.999998ZM301.117 15.304V14.304H211.741V15.304V16.304H301.117V15.304ZM211.741 15.304L212.677 15.6558L218.053 1.35181L217.117 0.999998L216.181 0.648186L210.805 14.9522L211.741 15.304ZM198.301 68.2L199.238 68.5505L216.23 23.1425L215.293 22.792L214.357 22.4415L197.365 67.8495L198.301 68.2ZM215.293 22.792V23.792H298.237V22.792V21.792H215.293V22.792ZM298.237 22.792L297.301 22.4409L292.693 34.7289L293.629 35.08L294.566 35.4311L299.174 23.1431L298.237 22.792ZM293.629 35.08V34.08H242.653V35.08V36.08H293.629V35.08ZM242.653 35.08L241.717 34.7294L234.709 53.4494L235.645 53.8L236.582 54.1506L243.59 35.4306L242.653 35.08ZM235.645 53.8V54.8H293.341V53.8V52.8H235.645V53.8ZM293.341 53.8L292.405 53.4502L287.029 67.8503L287.965 68.2L288.902 68.5498L294.278 54.1498L293.341 53.8ZM287.965 68.2V67.2H198.301V68.2V69.2H287.965V68.2ZM386.314 0.999998L387.111 1.60419L388.328 -1.90735e-06H386.314V0.999998ZM359.818 35.944L359.022 35.3398L358.657 35.8206L358.912 36.3673L359.818 35.944ZM374.89 68.2V69.2H376.461L375.796 67.7767L374.89 68.2ZM340.042 68.2L339.136 68.6217L339.405 69.2H340.042V68.2ZM330.442 47.56L331.349 47.1383L330.65 45.6352L329.646 46.9546L330.442 47.56ZM314.89 68.008L314.902 69.0079L315.391 69.0022L315.686 68.6134L314.89 68.008ZM298.666 68.2L297.87 67.5946L296.631 69.2242L298.678 69.1999L298.666 68.2ZM324.298 34.504L325.094 35.1094L325.461 34.6271L325.203 34.0787L324.298 34.504ZM308.554 0.999998V-1.90735e-06H306.98L307.649 1.4253L308.554 0.999998ZM343.402 0.999998L344.308 0.575157L344.038 -1.90735e-06H343.402V0.999998ZM353.674 22.888L352.769 23.3128L353.469 24.805L354.469 23.4947L353.674 22.888ZM370.378 0.999998V-1.90735e-06H369.884L369.583 0.393325L370.378 0.999998ZM386.314 0.999998L385.518 0.395803L359.022 35.3398L359.818 35.944L360.615 36.5482L387.111 1.60419L386.314 0.999998ZM359.818 35.944L358.912 36.3673L373.984 68.6233L374.89 68.2L375.796 67.7767L360.724 35.5207L359.818 35.944ZM374.89 68.2V67.2H340.042V68.2V69.2H374.89V68.2ZM340.042 68.2L340.949 67.7783L331.349 47.1383L330.442 47.56L329.536 47.9817L339.136 68.6217L340.042 68.2ZM330.442 47.56L329.646 46.9546L314.094 67.4026L314.89 68.008L315.686 68.6134L331.238 48.1654L330.442 47.56ZM314.89 68.008L314.879 67.0081L298.655 67.2001L298.666 68.2L298.678 69.1999L314.902 69.0079L314.89 68.008ZM298.666 68.2L299.462 68.8054L325.094 35.1094L324.298 34.504L323.503 33.8986L297.87 67.5946L298.666 68.2ZM324.298 34.504L325.203 34.0787L309.459 0.574701L308.554 0.999998L307.649 1.4253L323.393 34.9293L324.298 34.504ZM308.554 0.999998V2H343.402V0.999998V-1.90735e-06H308.554V0.999998ZM343.402 0.999998L342.497 1.42484L352.769 23.3128L353.674 22.888L354.58 22.4632L344.308 0.575157L343.402 0.999998ZM353.674 22.888L354.469 23.4947L371.173 1.60667L370.378 0.999998L369.583 0.393325L352.879 22.2813L353.674 22.888ZM370.378 0.999998V2H386.314V0.999998V-1.90735e-06H370.378V0.999998ZM482.093 10.504L481.157 10.1529L481.157 10.1532L482.093 10.504ZM470.189 42.28L471.124 42.6347L471.126 42.6308L470.189 42.28ZM417.581 46.888V45.888H416.89L416.646 46.5341L417.581 46.888ZM409.517 68.2V69.2H410.208L410.452 68.5539L409.517 68.2ZM377.549 68.2L376.613 67.848L376.105 69.2H377.549V68.2ZM390.221 34.504V33.504H389.529L389.285 34.152L390.221 34.504ZM440.717 34.504V35.504H441.401L441.649 34.8673L440.717 34.504ZM448.205 15.304L449.137 15.6673L449.669 14.304H448.205V15.304ZM390.989 15.304L390.053 14.9522L389.545 16.304H390.989V15.304ZM396.365 0.999998V-1.90735e-06H395.673L395.429 0.648186L396.365 0.999998ZM475.469 0.999998V2C479.678 2 482.636 6.20894 481.157 10.1529L482.093 10.504L483.029 10.8551C485.007 5.58306 481.052 -1.90735e-06 475.469 -1.90735e-06V0.999998ZM482.093 10.504L481.157 10.1532L469.253 41.9292L470.189 42.28L471.126 42.6308L483.03 10.8548L482.093 10.504ZM470.189 42.28L469.254 41.9253C468.342 44.3288 466.117 45.888 463.565 45.888V46.888V47.888C466.965 47.888 469.924 45.7992 471.124 42.6347L470.189 42.28ZM463.565 46.888V45.888H417.581V46.888V47.888H463.565V46.888ZM417.581 46.888L416.646 46.5341L408.582 67.8461L409.517 68.2L410.452 68.5539L418.516 47.2419L417.581 46.888ZM409.517 68.2V67.2H377.549V68.2V69.2H409.517V68.2ZM377.549 68.2L378.485 68.552L391.157 34.856L390.221 34.504L389.285 34.152L376.613 67.848L377.549 68.2ZM390.221 34.504V35.504H440.717V34.504V33.504H390.221V34.504ZM440.717 34.504L441.649 34.8673L449.137 15.6673L448.205 15.304L447.273 14.9407L439.785 34.1407L440.717 34.504ZM448.205 15.304V14.304H390.989V15.304V16.304H448.205V15.304ZM390.989 15.304L391.925 15.6558L397.301 1.35181L396.365 0.999998L395.429 0.648186L390.053 14.9522L390.989 15.304ZM396.365 0.999998V2H475.469V0.999998V-1.90735e-06H396.365V0.999998ZM568.153 9.928L567.217 9.5746L567.216 9.57667L568.153 9.928ZM550.105 58.024L549.168 57.6726L549.164 57.6858L550.105 58.024ZM467.353 59.176L468.288 59.5294L468.289 59.5273L467.353 59.176ZM485.401 11.08L486.337 11.4313L486.337 11.4311L485.401 11.08ZM518.713 56.68V57.68H519.405L519.649 57.0313L518.713 56.68ZM535.321 12.424L536.257 12.7753L536.764 11.424H535.321V12.424ZM516.985 12.424V11.424H516.293L516.049 12.0709L516.985 12.424ZM500.281 56.68L499.345 56.3269L498.834 57.68H500.281V56.68ZM561.913 0.999998V2C565.924 2 568.6 5.9144 567.217 9.5746L568.153 9.928L569.088 10.2814C570.969 5.30161 567.31 -1.90735e-06 561.913 -1.90735e-06V0.999998ZM568.153 9.928L567.216 9.57667L549.168 57.6727L550.105 58.024L551.041 58.3753L569.089 10.2793L568.153 9.928ZM550.105 58.024L549.164 57.6858C547.104 63.4178 541.635 67.104 535.609 67.104V68.104V69.104C542.446 69.104 548.69 64.9182 551.046 58.3622L550.105 58.024ZM535.609 68.104V67.104H473.593V68.104V69.104H535.609V68.104ZM473.593 68.104V67.104C469.667 67.104 466.909 63.1792 468.288 59.5294L467.353 59.176L466.417 58.8226C464.532 63.8128 468.303 69.104 473.593 69.104V68.104ZM467.353 59.176L468.289 59.5273L486.337 11.4313L485.401 11.08L484.464 10.7287L466.416 58.8247L467.353 59.176ZM485.401 11.08L486.337 11.4311C488.493 5.68186 493.877 2 499.993 2V0.999998V-1.90735e-06C493.053 -1.90735e-06 486.916 4.19014 484.464 10.7289L485.401 11.08ZM499.993 0.999998V2H561.913V0.999998V-1.90735e-06H499.993V0.999998ZM518.713 56.68L519.649 57.0313L536.257 12.7753L535.321 12.424L534.384 12.0727L517.776 56.3287L518.713 56.68ZM535.321 12.424V11.424H516.985V12.424V13.424H535.321V12.424ZM516.985 12.424L516.049 12.0709L499.345 56.3269L500.281 56.68L501.216 57.0331L517.92 12.7771L516.985 12.424ZM500.281 56.68V57.68H518.713V56.68V55.68H500.281V56.68Z" fill="url(#paint0_linear_59_1225)" fill-opacity="0.8" mask="url(#path-1-outside-1_59_1225)"/>
<mask id="path-3-outside-2_59_1225" maskUnits="userSpaceOnUse" x="-0.735352" y="79.104" width="571" height="71" fill="black">
<rect fill="white" x="-0.735352" y="79.104" width="571" height="71"/>
<path d="M94.4647 95.304H44.0646L29.6646 133.8H80.0646L74.6887 148.2H20.6406C6.91265 148.2 -2.59135 134.472 2.30465 121.608L17.4726 81H99.8407L94.4647 95.304ZM128.433 95.208L167.121 126.024L162.705 137.736C160.401 143.976 154.449 148.104 147.729 148.104H76.4969L81.8729 133.8H132.273L93.2009 103.464L97.8089 91.272C100.209 85.032 106.161 81 112.785 81H183.921L178.641 95.208H128.433ZM217.117 81H306.397L301.117 95.304H211.741L217.117 81ZM198.301 148.2L215.293 102.792H298.237L293.629 115.08H242.653L235.645 133.8H293.341L287.965 148.2H198.301ZM386.314 81L359.818 115.944L374.89 148.2H340.042L330.442 127.56L314.89 148.008L298.666 148.2L324.298 114.504L308.554 81H343.402L353.674 102.888L370.378 81H386.314ZM475.469 81C480.365 81 483.821 85.896 482.093 90.504L470.189 122.28C469.133 125.064 466.541 126.888 463.565 126.888H417.581L409.517 148.2H377.549L390.221 114.504H440.717L448.205 95.304H390.989L396.365 81H475.469ZM561.913 81C566.617 81 569.785 85.608 568.153 89.928L550.105 138.024C547.897 144.168 542.041 148.104 535.609 148.104H473.593C468.985 148.104 465.721 143.496 467.353 139.176L485.401 91.08C487.705 84.936 493.465 81 499.993 81H561.913ZM518.713 136.68L535.321 92.424H516.985L500.281 136.68H518.713Z"/>
</mask>
<path d="M94.4647 95.304V96.304H95.1571L95.4007 95.6558L94.4647 95.304ZM44.0647 95.304V94.304H43.371L43.128 94.9536L44.0647 95.304ZM29.6646 133.8L28.728 133.45L28.2229 134.8H29.6646V133.8ZM80.0647 133.8L81.0015 134.15L81.5054 132.8H80.0647V133.8ZM74.6887 148.2V149.2H75.3827L75.6255 148.55L74.6887 148.2ZM2.30465 121.608L3.23926 121.964L3.24143 121.958L2.30465 121.608ZM17.4726 81V80H16.7787L16.5359 80.6501L17.4726 81ZM99.8407 81L100.777 81.3518L101.285 80H99.8407V81ZM94.4647 95.304V94.304H44.0647V95.304V96.304H94.4647V95.304ZM44.0647 95.304L43.128 94.9536L28.728 133.45L29.6646 133.8L30.6013 134.15L45.0013 95.6544L44.0647 95.304ZM29.6646 133.8V134.8H80.0647V133.8V132.8H29.6646V133.8ZM80.0647 133.8L79.1278 133.45L73.7518 147.85L74.6887 148.2L75.6255 148.55L81.0015 134.15L80.0647 133.8ZM74.6887 148.2V147.2H20.6406V148.2V149.2H74.6887V148.2ZM20.6406 148.2V147.2C7.61119 147.2 -1.40704 134.172 3.23925 121.964L2.30465 121.608L1.37005 121.252C-3.77567 134.772 6.2141 149.2 20.6406 149.2V148.2ZM2.30465 121.608L3.24143 121.958L18.4094 81.3499L17.4726 81L16.5359 80.6501L1.36786 121.258L2.30465 121.608ZM17.4726 81V82H99.8407V81V80H17.4726V81ZM99.8407 81L98.9046 80.6482L93.5286 94.9522L94.4647 95.304L95.4007 95.6558L100.777 81.3518L99.8407 81ZM128.433 95.208V94.208H125.572L127.81 95.9902L128.433 95.208ZM167.121 126.024L168.057 126.377L168.313 125.695L167.744 125.242L167.121 126.024ZM162.705 137.736L161.769 137.383L161.767 137.39L162.705 137.736ZM76.4969 148.104L75.5608 147.752L75.0528 149.104H76.4969V148.104ZM81.8729 133.8V132.8H81.1804L80.9368 133.448L81.8729 133.8ZM132.273 133.8V134.8H135.191L132.886 133.01L132.273 133.8ZM93.2009 103.464L92.2655 103.11L92.0045 103.801L92.5876 104.254L93.2009 103.464ZM97.8089 91.272L96.8755 90.913L96.8735 90.9185L97.8089 91.272ZM183.921 81L184.858 81.3483L185.359 80H183.921V81ZM178.641 95.208V96.208H179.336L179.578 95.5563L178.641 95.208ZM128.433 95.208L127.81 95.9902L166.498 126.806L167.121 126.024L167.744 125.242L129.056 94.4258L128.433 95.208ZM167.121 126.024L166.185 125.671L161.769 137.383L162.705 137.736L163.641 138.089L168.057 126.377L167.121 126.024ZM162.705 137.736L161.767 137.39C159.609 143.233 154.035 147.104 147.729 147.104V148.104V149.104C154.863 149.104 161.192 144.719 163.643 138.082L162.705 137.736ZM147.729 148.104V147.104H76.4969V148.104V149.104H147.729V148.104ZM76.4969 148.104L77.433 148.456L82.809 134.152L81.8729 133.8L80.9368 133.448L75.5608 147.752L76.4969 148.104ZM81.8729 133.8V134.8H132.273V133.8V132.8H81.8729V133.8ZM132.273 133.8L132.886 133.01L93.8142 102.674L93.2009 103.464L92.5876 104.254L131.66 134.59L132.273 133.8ZM93.2009 103.464L94.1363 103.818L98.7443 91.6255L97.8089 91.272L96.8735 90.9185L92.2655 103.11L93.2009 103.464ZM97.8089 91.272L98.7422 91.631C100.992 85.7806 106.571 82 112.785 82V81V80C105.751 80 99.4254 84.2834 96.8756 90.913L97.8089 91.272ZM112.785 81V82H183.921V81V80H112.785V81ZM183.921 81L182.984 80.6517L177.704 94.8597L178.641 95.208L179.578 95.5563L184.858 81.3483L183.921 81ZM178.641 95.208V94.208H128.433V95.208V96.208H178.641V95.208ZM217.117 81V80H216.425L216.181 80.6482L217.117 81ZM306.397 81L307.336 81.3463L307.832 80H306.397V81ZM301.117 95.304V96.304H301.814L302.056 95.6503L301.117 95.304ZM211.741 95.304L210.805 94.9522L210.297 96.304H211.741V95.304ZM198.301 148.2L197.365 147.85L196.859 149.2H198.301V148.2ZM215.293 102.792V101.792H214.6L214.357 102.442L215.293 102.792ZM298.237 102.792L299.174 103.143L299.68 101.792H298.237V102.792ZM293.629 115.08V116.08H294.322L294.566 115.431L293.629 115.08ZM242.653 115.08V114.08H241.96L241.717 114.729L242.653 115.08ZM235.645 133.8L234.709 133.449L234.203 134.8H235.645V133.8ZM293.341 133.8L294.278 134.15L294.782 132.8H293.341V133.8ZM287.965 148.2V149.2H288.659L288.902 148.55L287.965 148.2ZM217.117 81V82H306.397V81V80H217.117V81ZM306.397 81L305.459 80.6537L300.179 94.9577L301.117 95.304L302.056 95.6503L307.336 81.3463L306.397 81ZM301.117 95.304V94.304H211.741V95.304V96.304H301.117V95.304ZM211.741 95.304L212.677 95.6558L218.053 81.3518L217.117 81L216.181 80.6482L210.805 94.9522L211.741 95.304ZM198.301 148.2L199.238 148.55L216.23 103.142L215.293 102.792L214.357 102.442L197.365 147.85L198.301 148.2ZM215.293 102.792V103.792H298.237V102.792V101.792H215.293V102.792ZM298.237 102.792L297.301 102.441L292.693 114.729L293.629 115.08L294.566 115.431L299.174 103.143L298.237 102.792ZM293.629 115.08V114.08H242.653V115.08V116.08H293.629V115.08ZM242.653 115.08L241.717 114.729L234.709 133.449L235.645 133.8L236.582 134.151L243.59 115.431L242.653 115.08ZM235.645 133.8V134.8H293.341V133.8V132.8H235.645V133.8ZM293.341 133.8L292.405 133.45L287.029 147.85L287.965 148.2L288.902 148.55L294.278 134.15L293.341 133.8ZM287.965 148.2V147.2H198.301V148.2V149.2H287.965V148.2ZM386.314 81L387.111 81.6042L388.328 80H386.314V81ZM359.818 115.944L359.022 115.34L358.657 115.821L358.912 116.367L359.818 115.944ZM374.89 148.2V149.2H376.461L375.796 147.777L374.89 148.2ZM340.042 148.2L339.136 148.622L339.405 149.2H340.042V148.2ZM330.442 127.56L331.349 127.138L330.65 125.635L329.646 126.955L330.442 127.56ZM314.89 148.008L314.902 149.008L315.391 149.002L315.686 148.613L314.89 148.008ZM298.666 148.2L297.87 147.595L296.631 149.224L298.678 149.2L298.666 148.2ZM324.298 114.504L325.094 115.109L325.461 114.627L325.203 114.079L324.298 114.504ZM308.554 81V80H306.98L307.649 81.4253L308.554 81ZM343.402 81L344.308 80.5752L344.038 80H343.402V81ZM353.674 102.888L352.769 103.313L353.469 104.805L354.469 103.495L353.674 102.888ZM370.378 81V80H369.884L369.583 80.3933L370.378 81ZM386.314 81L385.518 80.3958L359.022 115.34L359.818 115.944L360.615 116.548L387.111 81.6042L386.314 81ZM359.818 115.944L358.912 116.367L373.984 148.623L374.89 148.2L375.796 147.777L360.724 115.521L359.818 115.944ZM374.89 148.2V147.2H340.042V148.2V149.2H374.89V148.2ZM340.042 148.2L340.949 147.778L331.349 127.138L330.442 127.56L329.536 127.982L339.136 148.622L340.042 148.2ZM330.442 127.56L329.646 126.955L314.094 147.403L314.89 148.008L315.686 148.613L331.238 128.165L330.442 127.56ZM314.89 148.008L314.879 147.008L298.655 147.2L298.666 148.2L298.678 149.2L314.902 149.008L314.89 148.008ZM298.666 148.2L299.462 148.805L325.094 115.109L324.298 114.504L323.503 113.899L297.87 147.595L298.666 148.2ZM324.298 114.504L325.203 114.079L309.459 80.5747L308.554 81L307.649 81.4253L323.393 114.929L324.298 114.504ZM308.554 81V82H343.402V81V80H308.554V81ZM343.402 81L342.497 81.4248L352.769 103.313L353.674 102.888L354.58 102.463L344.308 80.5752L343.402 81ZM353.674 102.888L354.469 103.495L371.173 81.6067L370.378 81L369.583 80.3933L352.879 102.281L353.674 102.888ZM370.378 81V82H386.314V81V80H370.378V81ZM482.093 90.504L481.157 90.1529L481.157 90.1532L482.093 90.504ZM470.189 122.28L471.124 122.635L471.126 122.631L470.189 122.28ZM417.581 126.888V125.888H416.89L416.646 126.534L417.581 126.888ZM409.517 148.2V149.2H410.208L410.452 148.554L409.517 148.2ZM377.549 148.2L376.613 147.848L376.105 149.2H377.549V148.2ZM390.221 114.504V113.504H389.529L389.285 114.152L390.221 114.504ZM440.717 114.504V115.504H441.401L441.649 114.867L440.717 114.504ZM448.205 95.304L449.137 95.6673L449.669 94.304H448.205V95.304ZM390.989 95.304L390.053 94.9522L389.545 96.304H390.989V95.304ZM396.365 81V80H395.673L395.429 80.6482L396.365 81ZM475.469 81V82C479.678 82 482.636 86.2089 481.157 90.1529L482.093 90.504L483.029 90.8551C485.007 85.5831 481.052 80 475.469 80V81ZM482.093 90.504L481.157 90.1532L469.253 121.929L470.189 122.28L471.126 122.631L483.03 90.8548L482.093 90.504ZM470.189 122.28L469.254 121.925C468.342 124.329 466.117 125.888 463.565 125.888V126.888V127.888C466.965 127.888 469.924 125.799 471.124 122.635L470.189 122.28ZM463.565 126.888V125.888H417.581V126.888V127.888H463.565V126.888ZM417.581 126.888L416.646 126.534L408.582 147.846L409.517 148.2L410.452 148.554L418.516 127.242L417.581 126.888ZM409.517 148.2V147.2H377.549V148.2V149.2H409.517V148.2ZM377.549 148.2L378.485 148.552L391.157 114.856L390.221 114.504L389.285 114.152L376.613 147.848L377.549 148.2ZM390.221 114.504V115.504H440.717V114.504V113.504H390.221V114.504ZM440.717 114.504L441.649 114.867L449.137 95.6673L448.205 95.304L447.273 94.9407L439.785 114.141L440.717 114.504ZM448.205 95.304V94.304H390.989V95.304V96.304H448.205V95.304ZM390.989 95.304L391.925 95.6558L397.301 81.3518L396.365 81L395.429 80.6482L390.053 94.9522L390.989 95.304ZM396.365 81V82H475.469V81V80H396.365V81ZM568.153 89.928L567.217 89.5746L567.216 89.5767L568.153 89.928ZM550.105 138.024L549.168 137.673L549.164 137.686L550.105 138.024ZM467.353 139.176L468.288 139.529L468.289 139.527L467.353 139.176ZM485.401 91.08L486.337 91.4313L486.337 91.4311L485.401 91.08ZM518.713 136.68V137.68H519.405L519.649 137.031L518.713 136.68ZM535.321 92.424L536.257 92.7753L536.764 91.424H535.321V92.424ZM516.985 92.424V91.424H516.293L516.049 92.0709L516.985 92.424ZM500.281 136.68L499.345 136.327L498.834 137.68H500.281V136.68ZM561.913 81V82C565.924 82 568.6 85.9144 567.217 89.5746L568.153 89.928L569.088 90.2814C570.969 85.3016 567.31 80 561.913 80V81ZM568.153 89.928L567.216 89.5767L549.168 137.673L550.105 138.024L551.041 138.375L569.089 90.2793L568.153 89.928ZM550.105 138.024L549.164 137.686C547.104 143.418 541.635 147.104 535.609 147.104V148.104V149.104C542.446 149.104 548.69 144.918 551.046 138.362L550.105 138.024ZM535.609 148.104V147.104H473.593V148.104V149.104H535.609V148.104ZM473.593 148.104V147.104C469.667 147.104 466.909 143.179 468.288 139.529L467.353 139.176L466.417 138.823C464.532 143.813 468.303 149.104 473.593 149.104V148.104ZM467.353 139.176L468.289 139.527L486.337 91.4313L485.401 91.08L484.464 90.7287L466.416 138.825L467.353 139.176ZM485.401 91.08L486.337 91.4311C488.493 85.6819 493.877 82 499.993 82V81V80C493.053 80 486.916 84.1901 484.464 90.7289L485.401 91.08ZM499.993 81V82H561.913V81V80H499.993V81ZM518.713 136.68L519.649 137.031L536.257 92.7753L535.321 92.424L534.384 92.0727L517.776 136.329L518.713 136.68ZM535.321 92.424V91.424H516.985V92.424V93.424H535.321V92.424ZM516.985 92.424L516.049 92.0709L499.345 136.327L500.281 136.68L501.216 137.033L517.92 92.7771L516.985 92.424ZM500.281 136.68V137.68H518.713V136.68V135.68H500.281V136.68Z" fill="url(#paint1_linear_59_1225)" fill-opacity="0.6" mask="url(#path-3-outside-2_59_1225)"/>
<mask id="path-5-outside-3_59_1225" maskUnits="userSpaceOnUse" x="-0.735352" y="159.104" width="571" height="71" fill="black">
<rect fill="white" x="-0.735352" y="159.104" width="571" height="71"/>
<path d="M94.4647 175.304H44.0646L29.6646 213.8H80.0646L74.6887 228.2H20.6406C6.91265 228.2 -2.59135 214.472 2.30465 201.608L17.4726 161H99.8407L94.4647 175.304ZM128.433 175.208L167.121 206.024L162.705 217.736C160.401 223.976 154.449 228.104 147.729 228.104H76.4969L81.8729 213.8H132.273L93.2009 183.464L97.8089 171.272C100.209 165.032 106.161 161 112.785 161H183.921L178.641 175.208H128.433ZM217.117 161H306.397L301.117 175.304H211.741L217.117 161ZM198.301 228.2L215.293 182.792H298.237L293.629 195.08H242.653L235.645 213.8H293.341L287.965 228.2H198.301ZM386.314 161L359.818 195.944L374.89 228.2H340.042L330.442 207.56L314.89 228.008L298.666 228.2L324.298 194.504L308.554 161H343.402L353.674 182.888L370.378 161H386.314ZM475.469 161C480.365 161 483.821 165.896 482.093 170.504L470.189 202.28C469.133 205.064 466.541 206.888 463.565 206.888H417.581L409.517 228.2H377.549L390.221 194.504H440.717L448.205 175.304H390.989L396.365 161H475.469ZM561.913 161C566.617 161 569.785 165.608 568.153 169.928L550.105 218.024C547.897 224.168 542.041 228.104 535.609 228.104H473.593C468.985 228.104 465.721 223.496 467.353 219.176L485.401 171.08C487.705 164.936 493.465 161 499.993 161H561.913ZM518.713 216.68L535.321 172.424H516.985L500.281 216.68H518.713Z"/>
</mask>
<path d="M94.4647 175.304V176.304H95.1571L95.4007 175.656L94.4647 175.304ZM44.0647 175.304V174.304H43.371L43.128 174.954L44.0647 175.304ZM29.6646 213.8L28.728 213.45L28.2229 214.8H29.6646V213.8ZM80.0647 213.8L81.0015 214.15L81.5054 212.8H80.0647V213.8ZM74.6887 228.2V229.2H75.3827L75.6255 228.55L74.6887 228.2ZM2.30465 201.608L3.23926 201.964L3.24143 201.958L2.30465 201.608ZM17.4726 161V160H16.7787L16.5359 160.65L17.4726 161ZM99.8407 161L100.777 161.352L101.285 160H99.8407V161ZM94.4647 175.304V174.304H44.0647V175.304V176.304H94.4647V175.304ZM44.0647 175.304L43.128 174.954L28.728 213.45L29.6646 213.8L30.6013 214.15L45.0013 175.654L44.0647 175.304ZM29.6646 213.8V214.8H80.0647V213.8V212.8H29.6646V213.8ZM80.0647 213.8L79.1278 213.45L73.7518 227.85L74.6887 228.2L75.6255 228.55L81.0015 214.15L80.0647 213.8ZM74.6887 228.2V227.2H20.6406V228.2V229.2H74.6887V228.2ZM20.6406 228.2V227.2C7.61119 227.2 -1.40704 214.172 3.23925 201.964L2.30465 201.608L1.37005 201.252C-3.77567 214.772 6.2141 229.2 20.6406 229.2V228.2ZM2.30465 201.608L3.24143 201.958L18.4094 161.35L17.4726 161L16.5359 160.65L1.36786 201.258L2.30465 201.608ZM17.4726 161V162H99.8407V161V160H17.4726V161ZM99.8407 161L98.9046 160.648L93.5286 174.952L94.4647 175.304L95.4007 175.656L100.777 161.352L99.8407 161ZM128.433 175.208V174.208H125.572L127.81 175.99L128.433 175.208ZM167.121 206.024L168.057 206.377L168.313 205.695L167.744 205.242L167.121 206.024ZM162.705 217.736L161.769 217.383L161.767 217.39L162.705 217.736ZM76.4969 228.104L75.5608 227.752L75.0528 229.104H76.4969V228.104ZM81.8729 213.8V212.8H81.1804L80.9368 213.448L81.8729 213.8ZM132.273 213.8V214.8H135.191L132.886 213.01L132.273 213.8ZM93.2009 183.464L92.2655 183.11L92.0045 183.801L92.5876 184.254L93.2009 183.464ZM97.8089 171.272L96.8755 170.913L96.8735 170.918L97.8089 171.272ZM183.921 161L184.858 161.348L185.359 160H183.921V161ZM178.641 175.208V176.208H179.336L179.578 175.556L178.641 175.208ZM128.433 175.208L127.81 175.99L166.498 206.806L167.121 206.024L167.744 205.242L129.056 174.426L128.433 175.208ZM167.121 206.024L166.185 205.671L161.769 217.383L162.705 217.736L163.641 218.089L168.057 206.377L167.121 206.024ZM162.705 217.736L161.767 217.39C159.609 223.233 154.035 227.104 147.729 227.104V228.104V229.104C154.863 229.104 161.192 224.719 163.643 218.082L162.705 217.736ZM147.729 228.104V227.104H76.4969V228.104V229.104H147.729V228.104ZM76.4969 228.104L77.433 228.456L82.809 214.152L81.8729 213.8L80.9368 213.448L75.5608 227.752L76.4969 228.104ZM81.8729 213.8V214.8H132.273V213.8V212.8H81.8729V213.8ZM132.273 213.8L132.886 213.01L93.8142 182.674L93.2009 183.464L92.5876 184.254L131.66 214.59L132.273 213.8ZM93.2009 183.464L94.1363 183.818L98.7443 171.626L97.8089 171.272L96.8735 170.918L92.2655 183.11L93.2009 183.464ZM97.8089 171.272L98.7422 171.631C100.992 165.781 106.571 162 112.785 162V161V160C105.751 160 99.4254 164.283 96.8756 170.913L97.8089 171.272ZM112.785 161V162H183.921V161V160H112.785V161ZM183.921 161L182.984 160.652L177.704 174.86L178.641 175.208L179.578 175.556L184.858 161.348L183.921 161ZM178.641 175.208V174.208H128.433V175.208V176.208H178.641V175.208ZM217.117 161V160H216.425L216.181 160.648L217.117 161ZM306.397 161L307.336 161.346L307.832 160H306.397V161ZM301.117 175.304V176.304H301.814L302.056 175.65L301.117 175.304ZM211.741 175.304L210.805 174.952L210.297 176.304H211.741V175.304ZM198.301 228.2L197.365 227.85L196.859 229.2H198.301V228.2ZM215.293 182.792V181.792H214.6L214.357 182.442L215.293 182.792ZM298.237 182.792L299.174 183.143L299.68 181.792H298.237V182.792ZM293.629 195.08V196.08H294.322L294.566 195.431L293.629 195.08ZM242.653 195.08V194.08H241.96L241.717 194.729L242.653 195.08ZM235.645 213.8L234.709 213.449L234.203 214.8H235.645V213.8ZM293.341 213.8L294.278 214.15L294.782 212.8H293.341V213.8ZM287.965 228.2V229.2H288.659L288.902 228.55L287.965 228.2ZM217.117 161V162H306.397V161V160H217.117V161ZM306.397 161L305.459 160.654L300.179 174.958L301.117 175.304L302.056 175.65L307.336 161.346L306.397 161ZM301.117 175.304V174.304H211.741V175.304V176.304H301.117V175.304ZM211.741 175.304L212.677 175.656L218.053 161.352L217.117 161L216.181 160.648L210.805 174.952L211.741 175.304ZM198.301 228.2L199.238 228.55L216.23 183.142L215.293 182.792L214.357 182.442L197.365 227.85L198.301 228.2ZM215.293 182.792V183.792H298.237V182.792V181.792H215.293V182.792ZM298.237 182.792L297.301 182.441L292.693 194.729L293.629 195.08L294.566 195.431L299.174 183.143L298.237 182.792ZM293.629 195.08V194.08H242.653V195.08V196.08H293.629V195.08ZM242.653 195.08L241.717 194.729L234.709 213.449L235.645 213.8L236.582 214.151L243.59 195.431L242.653 195.08ZM235.645 213.8V214.8H293.341V213.8V212.8H235.645V213.8ZM293.341 213.8L292.405 213.45L287.029 227.85L287.965 228.2L288.902 228.55L294.278 214.15L293.341 213.8ZM287.965 228.2V227.2H198.301V228.2V229.2H287.965V228.2ZM386.314 161L387.111 161.604L388.328 160H386.314V161ZM359.818 195.944L359.022 195.34L358.657 195.821L358.912 196.367L359.818 195.944ZM374.89 228.2V229.2H376.461L375.796 227.777L374.89 228.2ZM340.042 228.2L339.136 228.622L339.405 229.2H340.042V228.2ZM330.442 207.56L331.349 207.138L330.65 205.635L329.646 206.955L330.442 207.56ZM314.89 228.008L314.902 229.008L315.391 229.002L315.686 228.613L314.89 228.008ZM298.666 228.2L297.87 227.595L296.631 229.224L298.678 229.2L298.666 228.2ZM324.298 194.504L325.094 195.109L325.461 194.627L325.203 194.079L324.298 194.504ZM308.554 161V160H306.98L307.649 161.425L308.554 161ZM343.402 161L344.308 160.575L344.038 160H343.402V161ZM353.674 182.888L352.769 183.313L353.469 184.805L354.469 183.495L353.674 182.888ZM370.378 161V160H369.884L369.583 160.393L370.378 161ZM386.314 161L385.518 160.396L359.022 195.34L359.818 195.944L360.615 196.548L387.111 161.604L386.314 161ZM359.818 195.944L358.912 196.367L373.984 228.623L374.89 228.2L375.796 227.777L360.724 195.521L359.818 195.944ZM374.89 228.2V227.2H340.042V228.2V229.2H374.89V228.2ZM340.042 228.2L340.949 227.778L331.349 207.138L330.442 207.56L329.536 207.982L339.136 228.622L340.042 228.2ZM330.442 207.56L329.646 206.955L314.094 227.403L314.89 228.008L315.686 228.613L331.238 208.165L330.442 207.56ZM314.89 228.008L314.879 227.008L298.655 227.2L298.666 228.2L298.678 229.2L314.902 229.008L314.89 228.008ZM298.666 228.2L299.462 228.805L325.094 195.109L324.298 194.504L323.503 193.899L297.87 227.595L298.666 228.2ZM324.298 194.504L325.203 194.079L309.459 160.575L308.554 161L307.649 161.425L323.393 194.929L324.298 194.504ZM308.554 161V162H343.402V161V160H308.554V161ZM343.402 161L342.497 161.425L352.769 183.313L353.674 182.888L354.58 182.463L344.308 160.575L343.402 161ZM353.674 182.888L354.469 183.495L371.173 161.607L370.378 161L369.583 160.393L352.879 182.281L353.674 182.888ZM370.378 161V162H386.314V161V160H370.378V161ZM482.093 170.504L481.157 170.153L481.157 170.153L482.093 170.504ZM470.189 202.28L471.124 202.635L471.126 202.631L470.189 202.28ZM417.581 206.888V205.888H416.89L416.646 206.534L417.581 206.888ZM409.517 228.2V229.2H410.208L410.452 228.554L409.517 228.2ZM377.549 228.2L376.613 227.848L376.105 229.2H377.549V228.2ZM390.221 194.504V193.504H389.529L389.285 194.152L390.221 194.504ZM440.717 194.504V195.504H441.401L441.649 194.867L440.717 194.504ZM448.205 175.304L449.137 175.667L449.669 174.304H448.205V175.304ZM390.989 175.304L390.053 174.952L389.545 176.304H390.989V175.304ZM396.365 161V160H395.673L395.429 160.648L396.365 161ZM475.469 161V162C479.678 162 482.636 166.209 481.157 170.153L482.093 170.504L483.029 170.855C485.007 165.583 481.052 160 475.469 160V161ZM482.093 170.504L481.157 170.153L469.253 201.929L470.189 202.28L471.126 202.631L483.03 170.855L482.093 170.504ZM470.189 202.28L469.254 201.925C468.342 204.329 466.117 205.888 463.565 205.888V206.888V207.888C466.965 207.888 469.924 205.799 471.124 202.635L470.189 202.28ZM463.565 206.888V205.888H417.581V206.888V207.888H463.565V206.888ZM417.581 206.888L416.646 206.534L408.582 227.846L409.517 228.2L410.452 228.554L418.516 207.242L417.581 206.888ZM409.517 228.2V227.2H377.549V228.2V229.2H409.517V228.2ZM377.549 228.2L378.485 228.552L391.157 194.856L390.221 194.504L389.285 194.152L376.613 227.848L377.549 228.2ZM390.221 194.504V195.504H440.717V194.504V193.504H390.221V194.504ZM440.717 194.504L441.649 194.867L449.137 175.667L448.205 175.304L447.273 174.941L439.785 194.141L440.717 194.504ZM448.205 175.304V174.304H390.989V175.304V176.304H448.205V175.304ZM390.989 175.304L391.925 175.656L397.301 161.352L396.365 161L395.429 160.648L390.053 174.952L390.989 175.304ZM396.365 161V162H475.469V161V160H396.365V161ZM568.153 169.928L567.217 169.575L567.216 169.577L568.153 169.928ZM550.105 218.024L549.168 217.673L549.164 217.686L550.105 218.024ZM467.353 219.176L468.288 219.529L468.289 219.527L467.353 219.176ZM485.401 171.08L486.337 171.431L486.337 171.431L485.401 171.08ZM518.713 216.68V217.68H519.405L519.649 217.031L518.713 216.68ZM535.321 172.424L536.257 172.775L536.764 171.424H535.321V172.424ZM516.985 172.424V171.424H516.293L516.049 172.071L516.985 172.424ZM500.281 216.68L499.345 216.327L498.834 217.68H500.281V216.68ZM561.913 161V162C565.924 162 568.6 165.914 567.217 169.575L568.153 169.928L569.088 170.281C570.969 165.302 567.31 160 561.913 160V161ZM568.153 169.928L567.216 169.577L549.168 217.673L550.105 218.024L551.041 218.375L569.089 170.279L568.153 169.928ZM550.105 218.024L549.164 217.686C547.104 223.418 541.635 227.104 535.609 227.104V228.104V229.104C542.446 229.104 548.69 224.918 551.046 218.362L550.105 218.024ZM535.609 228.104V227.104H473.593V228.104V229.104H535.609V228.104ZM473.593 228.104V227.104C469.667 227.104 466.909 223.179 468.288 219.529L467.353 219.176L466.417 218.823C464.532 223.813 468.303 229.104 473.593 229.104V228.104ZM467.353 219.176L468.289 219.527L486.337 171.431L485.401 171.08L484.464 170.729L466.416 218.825L467.353 219.176ZM485.401 171.08L486.337 171.431C488.493 165.682 493.877 162 499.993 162V161V160C493.053 160 486.916 164.19 484.464 170.729L485.401 171.08ZM499.993 161V162H561.913V161V160H499.993V161ZM518.713 216.68L519.649 217.031L536.257 172.775L535.321 172.424L534.384 172.073L517.776 216.329L518.713 216.68ZM535.321 172.424V171.424H516.985V172.424V173.424H535.321V172.424ZM516.985 172.424L516.049 172.071L499.345 216.327L500.281 216.68L501.216 217.033L517.92 172.777L516.985 172.424ZM500.281 216.68V217.68H518.713V216.68V215.68H500.281V216.68Z" fill="url(#paint2_linear_59_1225)" fill-opacity="0.3" mask="url(#path-5-outside-3_59_1225)"/>
<mask id="path-7-outside-4_59_1225" maskUnits="userSpaceOnUse" x="-0.735352" y="239.104" width="571" height="71" fill="black">
<rect fill="white" x="-0.735352" y="239.104" width="571" height="71"/>
<path d="M94.4647 255.304H44.0646L29.6646 293.8H80.0646L74.6887 308.2H20.6406C6.91265 308.2 -2.59135 294.472 2.30465 281.608L17.4726 241H99.8407L94.4647 255.304ZM128.433 255.208L167.121 286.024L162.705 297.736C160.401 303.976 154.449 308.104 147.729 308.104H76.4969L81.8729 293.8H132.273L93.2009 263.464L97.8089 251.272C100.209 245.032 106.161 241 112.785 241H183.921L178.641 255.208H128.433ZM217.117 241H306.397L301.117 255.304H211.741L217.117 241ZM198.301 308.2L215.293 262.792H298.237L293.629 275.08H242.653L235.645 293.8H293.341L287.965 308.2H198.301ZM386.314 241L359.818 275.944L374.89 308.2H340.042L330.442 287.56L314.89 308.008L298.666 308.2L324.298 274.504L308.554 241H343.402L353.674 262.888L370.378 241H386.314ZM475.469 241C480.365 241 483.821 245.896 482.093 250.504L470.189 282.28C469.133 285.064 466.541 286.888 463.565 286.888H417.581L409.517 308.2H377.549L390.221 274.504H440.717L448.205 255.304H390.989L396.365 241H475.469ZM561.913 241C566.617 241 569.785 245.608 568.153 249.928L550.105 298.024C547.897 304.168 542.041 308.104 535.609 308.104H473.593C468.985 308.104 465.721 303.496 467.353 299.176L485.401 251.08C487.705 244.936 493.465 241 499.993 241H561.913ZM518.713 296.68L535.321 252.424H516.985L500.281 296.68H518.713Z"/>
</mask>
<path d="M94.4647 255.304V256.304H95.1571L95.4007 255.656L94.4647 255.304ZM44.0647 255.304V254.304H43.371L43.128 254.954L44.0647 255.304ZM29.6646 293.8L28.728 293.45L28.2229 294.8H29.6646V293.8ZM80.0647 293.8L81.0015 294.15L81.5054 292.8H80.0647V293.8ZM74.6887 308.2V309.2H75.3827L75.6255 308.55L74.6887 308.2ZM2.30465 281.608L3.23926 281.964L3.24143 281.958L2.30465 281.608ZM17.4726 241V240H16.7787L16.5359 240.65L17.4726 241ZM99.8407 241L100.777 241.352L101.285 240H99.8407V241ZM94.4647 255.304V254.304H44.0647V255.304V256.304H94.4647V255.304ZM44.0647 255.304L43.128 254.954L28.728 293.45L29.6646 293.8L30.6013 294.15L45.0013 255.654L44.0647 255.304ZM29.6646 293.8V294.8H80.0647V293.8V292.8H29.6646V293.8ZM80.0647 293.8L79.1278 293.45L73.7518 307.85L74.6887 308.2L75.6255 308.55L81.0015 294.15L80.0647 293.8ZM74.6887 308.2V307.2H20.6406V308.2V309.2H74.6887V308.2ZM20.6406 308.2V307.2C7.61119 307.2 -1.40704 294.172 3.23925 281.964L2.30465 281.608L1.37005 281.252C-3.77567 294.772 6.2141 309.2 20.6406 309.2V308.2ZM2.30465 281.608L3.24143 281.958L18.4094 241.35L17.4726 241L16.5359 240.65L1.36786 281.258L2.30465 281.608ZM17.4726 241V242H99.8407V241V240H17.4726V241ZM99.8407 241L98.9046 240.648L93.5286 254.952L94.4647 255.304L95.4007 255.656L100.777 241.352L99.8407 241ZM128.433 255.208V254.208H125.572L127.81 255.99L128.433 255.208ZM167.121 286.024L168.057 286.377L168.313 285.695L167.744 285.242L167.121 286.024ZM162.705 297.736L161.769 297.383L161.767 297.39L162.705 297.736ZM76.4969 308.104L75.5608 307.752L75.0528 309.104H76.4969V308.104ZM81.8729 293.8V292.8H81.1804L80.9368 293.448L81.8729 293.8ZM132.273 293.8V294.8H135.191L132.886 293.01L132.273 293.8ZM93.2009 263.464L92.2655 263.11L92.0045 263.801L92.5876 264.254L93.2009 263.464ZM97.8089 251.272L96.8755 250.913L96.8735 250.918L97.8089 251.272ZM183.921 241L184.858 241.348L185.359 240H183.921V241ZM178.641 255.208V256.208H179.336L179.578 255.556L178.641 255.208ZM128.433 255.208L127.81 255.99L166.498 286.806L167.121 286.024L167.744 285.242L129.056 254.426L128.433 255.208ZM167.121 286.024L166.185 285.671L161.769 297.383L162.705 297.736L163.641 298.089L168.057 286.377L167.121 286.024ZM162.705 297.736L161.767 297.39C159.609 303.233 154.035 307.104 147.729 307.104V308.104V309.104C154.863 309.104 161.192 304.719 163.643 298.082L162.705 297.736ZM147.729 308.104V307.104H76.4969V308.104V309.104H147.729V308.104ZM76.4969 308.104L77.433 308.456L82.809 294.152L81.8729 293.8L80.9368 293.448L75.5608 307.752L76.4969 308.104ZM81.8729 293.8V294.8H132.273V293.8V292.8H81.8729V293.8ZM132.273 293.8L132.886 293.01L93.8142 262.674L93.2009 263.464L92.5876 264.254L131.66 294.59L132.273 293.8ZM93.2009 263.464L94.1363 263.818L98.7443 251.626L97.8089 251.272L96.8735 250.918L92.2655 263.11L93.2009 263.464ZM97.8089 251.272L98.7422 251.631C100.992 245.781 106.571 242 112.785 242V241V240C105.751 240 99.4254 244.283 96.8756 250.913L97.8089 251.272ZM112.785 241V242H183.921V241V240H112.785V241ZM183.921 241L182.984 240.652L177.704 254.86L178.641 255.208L179.578 255.556L184.858 241.348L183.921 241ZM178.641 255.208V254.208H128.433V255.208V256.208H178.641V255.208ZM217.117 241V240H216.425L216.181 240.648L217.117 241ZM306.397 241L307.336 241.346L307.832 240H306.397V241ZM301.117 255.304V256.304H301.814L302.056 255.65L301.117 255.304ZM211.741 255.304L210.805 254.952L210.297 256.304H211.741V255.304ZM198.301 308.2L197.365 307.85L196.859 309.2H198.301V308.2ZM215.293 262.792V261.792H214.6L214.357 262.442L215.293 262.792ZM298.237 262.792L299.174 263.143L299.68 261.792H298.237V262.792ZM293.629 275.08V276.08H294.322L294.566 275.431L293.629 275.08ZM242.653 275.08V274.08H241.96L241.717 274.729L242.653 275.08ZM235.645 293.8L234.709 293.449L234.203 294.8H235.645V293.8ZM293.341 293.8L294.278 294.15L294.782 292.8H293.341V293.8ZM287.965 308.2V309.2H288.659L288.902 308.55L287.965 308.2ZM217.117 241V242H306.397V241V240H217.117V241ZM306.397 241L305.459 240.654L300.179 254.958L301.117 255.304L302.056 255.65L307.336 241.346L306.397 241ZM301.117 255.304V254.304H211.741V255.304V256.304H301.117V255.304ZM211.741 255.304L212.677 255.656L218.053 241.352L217.117 241L216.181 240.648L210.805 254.952L211.741 255.304ZM198.301 308.2L199.238 308.55L216.23 263.142L215.293 262.792L214.357 262.442L197.365 307.85L198.301 308.2ZM215.293 262.792V263.792H298.237V262.792V261.792H215.293V262.792ZM298.237 262.792L297.301 262.441L292.693 274.729L293.629 275.08L294.566 275.431L299.174 263.143L298.237 262.792ZM293.629 275.08V274.08H242.653V275.08V276.08H293.629V275.08ZM242.653 275.08L241.717 274.729L234.709 293.449L235.645 293.8L236.582 294.151L243.59 275.431L242.653 275.08ZM235.645 293.8V294.8H293.341V293.8V292.8H235.645V293.8ZM293.341 293.8L292.405 293.45L287.029 307.85L287.965 308.2L288.902 308.55L294.278 294.15L293.341 293.8ZM287.965 308.2V307.2H198.301V308.2V309.2H287.965V308.2ZM386.314 241L387.111 241.604L388.328 240H386.314V241ZM359.818 275.944L359.022 275.34L358.657 275.821L358.912 276.367L359.818 275.944ZM374.89 308.2V309.2H376.461L375.796 307.777L374.89 308.2ZM340.042 308.2L339.136 308.622L339.405 309.2H340.042V308.2ZM330.442 287.56L331.349 287.138L330.65 285.635L329.646 286.955L330.442 287.56ZM314.89 308.008L314.902 309.008L315.391 309.002L315.686 308.613L314.89 308.008ZM298.666 308.2L297.87 307.595L296.631 309.224L298.678 309.2L298.666 308.2ZM324.298 274.504L325.094 275.109L325.461 274.627L325.203 274.079L324.298 274.504ZM308.554 241V240H306.98L307.649 241.425L308.554 241ZM343.402 241L344.308 240.575L344.038 240H343.402V241ZM353.674 262.888L352.769 263.313L353.469 264.805L354.469 263.495L353.674 262.888ZM370.378 241V240H369.884L369.583 240.393L370.378 241ZM386.314 241L385.518 240.396L359.022 275.34L359.818 275.944L360.615 276.548L387.111 241.604L386.314 241ZM359.818 275.944L358.912 276.367L373.984 308.623L374.89 308.2L375.796 307.777L360.724 275.521L359.818 275.944ZM374.89 308.2V307.2H340.042V308.2V309.2H374.89V308.2ZM340.042 308.2L340.949 307.778L331.349 287.138L330.442 287.56L329.536 287.982L339.136 308.622L340.042 308.2ZM330.442 287.56L329.646 286.955L314.094 307.403L314.89 308.008L315.686 308.613L331.238 288.165L330.442 287.56ZM314.89 308.008L314.879 307.008L298.655 307.2L298.666 308.2L298.678 309.2L314.902 309.008L314.89 308.008ZM298.666 308.2L299.462 308.805L325.094 275.109L324.298 274.504L323.503 273.899L297.87 307.595L298.666 308.2ZM324.298 274.504L325.203 274.079L309.459 240.575L308.554 241L307.649 241.425L323.393 274.929L324.298 274.504ZM308.554 241V242H343.402V241V240H308.554V241ZM343.402 241L342.497 241.425L352.769 263.313L353.674 262.888L354.58 262.463L344.308 240.575L343.402 241ZM353.674 262.888L354.469 263.495L371.173 241.607L370.378 241L369.583 240.393L352.879 262.281L353.674 262.888ZM370.378 241V242H386.314V241V240H370.378V241ZM482.093 250.504L481.157 250.153L481.157 250.153L482.093 250.504ZM470.189 282.28L471.124 282.635L471.126 282.631L470.189 282.28ZM417.581 286.888V285.888H416.89L416.646 286.534L417.581 286.888ZM409.517 308.2V309.2H410.208L410.452 308.554L409.517 308.2ZM377.549 308.2L376.613 307.848L376.105 309.2H377.549V308.2ZM390.221 274.504V273.504H389.529L389.285 274.152L390.221 274.504ZM440.717 274.504V275.504H441.401L441.649 274.867L440.717 274.504ZM448.205 255.304L449.137 255.667L449.669 254.304H448.205V255.304ZM390.989 255.304L390.053 254.952L389.545 256.304H390.989V255.304ZM396.365 241V240H395.673L395.429 240.648L396.365 241ZM475.469 241V242C479.678 242 482.636 246.209 481.157 250.153L482.093 250.504L483.029 250.855C485.007 245.583 481.052 240 475.469 240V241ZM482.093 250.504L481.157 250.153L469.253 281.929L470.189 282.28L471.126 282.631L483.03 250.855L482.093 250.504ZM470.189 282.28L469.254 281.925C468.342 284.329 466.117 285.888 463.565 285.888V286.888V287.888C466.965 287.888 469.924 285.799 471.124 282.635L470.189 282.28ZM463.565 286.888V285.888H417.581V286.888V287.888H463.565V286.888ZM417.581 286.888L416.646 286.534L408.582 307.846L409.517 308.2L410.452 308.554L418.516 287.242L417.581 286.888ZM409.517 308.2V307.2H377.549V308.2V309.2H409.517V308.2ZM377.549 308.2L378.485 308.552L391.157 274.856L390.221 274.504L389.285 274.152L376.613 307.848L377.549 308.2ZM390.221 274.504V275.504H440.717V274.504V273.504H390.221V274.504ZM440.717 274.504L441.649 274.867L449.137 255.667L448.205 255.304L447.273 254.941L439.785 274.141L440.717 274.504ZM448.205 255.304V254.304H390.989V255.304V256.304H448.205V255.304ZM390.989 255.304L391.925 255.656L397.301 241.352L396.365 241L395.429 240.648L390.053 254.952L390.989 255.304ZM396.365 241V242H475.469V241V240H396.365V241ZM568.153 249.928L567.217 249.575L567.216 249.577L568.153 249.928ZM550.105 298.024L549.168 297.673L549.164 297.686L550.105 298.024ZM467.353 299.176L468.288 299.529L468.289 299.527L467.353 299.176ZM485.401 251.08L486.337 251.431L486.337 251.431L485.401 251.08ZM518.713 296.68V297.68H519.405L519.649 297.031L518.713 296.68ZM535.321 252.424L536.257 252.775L536.764 251.424H535.321V252.424ZM516.985 252.424V251.424H516.293L516.049 252.071L516.985 252.424ZM500.281 296.68L499.345 296.327L498.834 297.68H500.281V296.68ZM561.913 241V242C565.924 242 568.6 245.914 567.217 249.575L568.153 249.928L569.088 250.281C570.969 245.302 567.31 240 561.913 240V241ZM568.153 249.928L567.216 249.577L549.168 297.673L550.105 298.024L551.041 298.375L569.089 250.279L568.153 249.928ZM550.105 298.024L549.164 297.686C547.104 303.418 541.635 307.104 535.609 307.104V308.104V309.104C542.446 309.104 548.69 304.918 551.046 298.362L550.105 298.024ZM535.609 308.104V307.104H473.593V308.104V309.104H535.609V308.104ZM473.593 308.104V307.104C469.667 307.104 466.909 303.179 468.288 299.529L467.353 299.176L466.417 298.823C464.532 303.813 468.303 309.104 473.593 309.104V308.104ZM467.353 299.176L468.289 299.527L486.337 251.431L485.401 251.08L484.464 250.729L466.416 298.825L467.353 299.176ZM485.401 251.08L486.337 251.431C488.493 245.682 493.877 242 499.993 242V241V240C493.053 240 486.916 244.19 484.464 250.729L485.401 251.08ZM499.993 241V242H561.913V241V240H499.993V241ZM518.713 296.68L519.649 297.031L536.257 252.775L535.321 252.424L534.384 252.073L517.776 296.329L518.713 296.68ZM535.321 252.424V251.424H516.985V252.424V253.424H535.321V252.424ZM516.985 252.424L516.049 252.071L499.345 296.327L500.281 296.68L501.216 297.033L517.92 252.777L516.985 252.424ZM500.281 296.68V297.68H518.713V296.68V295.68H500.281V296.68Z" fill="url(#paint3_linear_59_1225)" fill-opacity="0.1" mask="url(#path-7-outside-4_59_1225)"/>
<defs>
<linearGradient id="paint0_linear_59_1225" x1="282.765" y1="77.104" x2="282.765" y2="7.104" gradientUnits="userSpaceOnUse">
<stop stop-color="#FF00DC" stop-opacity="0"/>
<stop offset="1" stop-color="#990084"/>
</linearGradient>
<linearGradient id="paint1_linear_59_1225" x1="282.765" y1="157.104" x2="282.765" y2="87.104" gradientUnits="userSpaceOnUse">
<stop stop-color="#FF00DC" stop-opacity="0"/>
<stop offset="1" stop-color="#990084"/>
</linearGradient>
<linearGradient id="paint2_linear_59_1225" x1="282.765" y1="237.104" x2="282.765" y2="167.104" gradientUnits="userSpaceOnUse">
<stop stop-color="#FF00DC" stop-opacity="0"/>
<stop offset="1" stop-color="#990084"/>
</linearGradient>
<linearGradient id="paint3_linear_59_1225" x1="282.765" y1="317.104" x2="282.765" y2="247.104" gradientUnits="userSpaceOnUse">
<stop stop-color="#FF00DC" stop-opacity="0"/>
<stop offset="1" stop-color="#990084"/>
</linearGradient>
</defs>
</svg>
