<svg width="118" height="106" viewBox="0 0 118 106" fill="none" xmlns="http://www.w3.org/2000/svg">
<path d="M85.7766 47.8579L62.9914 47.4733C60.6446 47.434 58.5881 45.8878 57.9053 43.643L51.2337 21.8545C49.6954 16.8391 42.6392 16.7135 40.9282 21.6818L33.5188 43.2349C32.7575 45.4561 30.654 46.9317 28.3072 46.8925L5.5219 46.5078C0.271009 46.4215 -2.02088 53.0931 2.17042 56.2562L20.3798 69.9603C22.2557 71.3731 23.0092 73.8298 22.2479 76.051L14.8385 97.604C13.1353 102.564 18.7708 106.811 23.072 103.805L41.7288 90.7205C43.6517 89.3705 46.2183 89.4176 48.0942 90.8304L66.3036 104.535C70.4949 107.69 76.2795 103.64 74.7411 98.6165L68.0696 76.828C67.3789 74.5832 68.2187 72.1501 70.1417 70.8079L88.7984 57.7239C93.0996 54.7021 91.0275 47.9442 85.7766 47.8579Z" fill="white"/>
<path d="M96.4668 13.7231L86.3732 13.5504C85.3293 13.5347 84.4267 12.8441 84.1206 11.8551L81.1615 2.201C80.4787 -0.0202285 77.3548 -0.0751994 76.5935 2.12248L73.3127 11.6745C72.9752 12.6557 72.0411 13.315 71.0051 13.2915L60.9115 13.1188C58.5882 13.0795 57.5678 16.0385 59.428 17.4356L67.4967 23.5107C68.3287 24.1386 68.6583 25.2217 68.3208 26.2107L65.04 35.7627C64.2865 37.9604 66.7824 39.8442 68.6897 38.5098L76.9624 32.7096C77.8101 32.1131 78.956 32.1287 79.788 32.7567L87.8566 38.8317C89.7168 40.2288 92.2755 38.4314 91.5927 36.2101L88.6337 26.556C88.3276 25.5592 88.6965 24.484 89.552 23.8874L97.8247 18.0871C99.7084 16.7607 98.7901 13.7624 96.4668 13.7231Z" fill="white"/>
<path d="M116.411 27.9296L111.741 27.8511C111.262 27.8433 110.838 27.5293 110.697 27.0663L109.331 22.6002C109.017 21.572 107.565 21.5485 107.22 22.561L105.705 26.9799C105.548 27.4351 105.116 27.7412 104.637 27.7255L99.9674 27.6471C98.8921 27.6314 98.4211 28.9971 99.2845 29.6407L103.013 32.4506C103.397 32.741 103.554 33.2433 103.397 33.6986L101.882 38.1174C101.529 39.1378 102.691 40.0091 103.57 39.389L107.392 36.7047C107.785 36.4299 108.311 36.4378 108.695 36.7282L112.424 39.5381C113.287 40.1817 114.472 39.3576 114.15 38.3294L112.785 33.8634C112.643 33.4003 112.816 32.9058 113.208 32.6311L117.031 29.9468C117.91 29.3346 117.486 27.9532 116.411 27.9296Z" fill="white"/>
</svg>
