<svg width="21" height="21" viewBox="0 0 21 21" fill="none" xmlns="http://www.w3.org/2000/svg">
<path d="M11.6892 1.19895L13.3116 6.16883C13.478 6.68004 13.9573 7.02745 14.4981 7.02745H19.7486C20.9586 7.02745 21.4614 8.56828 20.4829 9.27569L16.2344 12.3483C15.7967 12.6652 15.614 13.225 15.7804 13.738L17.4028 18.7079C17.7772 19.8527 16.4605 20.8049 15.482 20.0975L11.2334 17.0248C10.7957 16.708 10.2043 16.708 9.76658 17.0248L5.51802 20.0975C4.53953 20.8049 3.22282 19.8527 3.59721 18.7079L5.21959 13.738C5.38599 13.2268 5.20331 12.6652 4.76561 12.3483L0.517051 9.27569C-0.461439 8.56828 0.0413705 7.02745 1.25137 7.02745H6.50194C7.04273 7.02745 7.52203 6.68004 7.68842 6.16883L9.31079 1.19895C9.687 0.0541269 11.3148 0.0541269 11.6892 1.19895Z" fill="white"/>
</svg>
