<svg width="1440" height="342" viewBox="0 0 1440 342" fill="none" xmlns="http://www.w3.org/2000/svg">
<path d="M-337.976 124.155L1872.76 124.155M-262.742 90.9899L1829.36 90.99M-207.763 60.3766L1751.23 60.3767M-102.145 2.55115H1628.25M-152.783 30.6135L1684.68 30.6136M-97.8043 2.55112L-691 305.284M119.219 2.55115L-418.998 335.898M327.56 5.95264L-15.3356 322.292M1628.25 1.70074L2288 336.748M-418.998 163.272L1953.78 163.272M-504.36 207.491H2036.25M-617.212 267.868H2154.89M1411.23 2.55115L1955.23 341M1188.42 1.70074L1550.12 340.15M974.288 0.850403L1156.59 339.299M554.711 0.850403L363.731 339.299M758.713 0V336.748" stroke="url(#paint0_linear_7_1061)" stroke-width="2"/>
<defs>
<linearGradient id="paint0_linear_7_1061" x1="795.356" y1="341" x2="800.939" y2="-0.011546" gradientUnits="userSpaceOnUse">
<stop/>
<stop offset="0.610577" stop-color="#450CA2"/>
<stop offset="0.975184" stop-color="white"/>
</linearGradient>
</defs>
</svg>
